<svg version="1.1" id="Layer_1" xmlns="http://www.w3.org/2000/svg" xmlns:xlink="http://www.w3.org/1999/xlink" x="0px" y="0px" viewBox="0 0 500 500" style="width: 136px;" xml:space="preserve" data-imageid="receptionist-62" imageName="Receptionist" class="illustrations_image">
<style type="text/css">
	.st0_receptionist-62{fill:#FFFFFF;}
	.st1_receptionist-62{fill:#D1D3D4;}
	.st2_receptionist-62{fill:#231F20;}
	.st3_receptionist-62{fill:none;}
	.st4_receptionist-62{fill:#68E1FD;}
</style>
<g id="Chair_receptionist-62">
	<path class="st0_receptionist-62" d="M265,168.1h78.7c9.5,0,17.3,7.6,17.3,17.1c0,0,0,0,0,0.1v119.5l0,0H247.8l0,0V185.3&#10;&#9;&#9;C247.8,175.8,255.5,168.1,265,168.1z"/>
	<path class="st1_receptionist-62" d="M361,305.5H247.8c-0.4,0-0.8-0.3-0.8-0.8V185.3c0-9.9,8.1-18,18-18h78.7c9.9,0,18,8.1,18,18v119.5&#10;&#9;&#9;C361.8,305.2,361.4,305.5,361,305.5C361,305.5,361,305.5,361,305.5z M248.6,304h111.6V185.3c0-9.1-7.4-16.5-16.5-16.5H265&#10;&#9;&#9;c-9.1,0-16.5,7.4-16.5,16.5L248.6,304z"/>
	<path class="st0_receptionist-62" d="M249.3,168.1H328c9.5,0,17.2,7.7,17.2,17.2l0,0v119.5l0,0H232.1l0,0V185.3&#10;&#9;&#9;C232.1,175.8,239.8,168.1,249.3,168.1z"/>
	<path class="st1_receptionist-62" d="M345.2,305.5H232.1c-0.4,0-0.7-0.3-0.8-0.7c0,0,0,0,0,0V185.3c0-9.9,8.1-18,18-18H328c9.9,0,18,8.1,18,18&#10;&#9;&#9;v119.5C346,305.2,345.7,305.5,345.2,305.5C345.3,305.5,345.3,305.5,345.2,305.5z M232.9,304h111.6V185.3c0-9.1-7.4-16.5-16.5-16.5&#10;&#9;&#9;c0,0,0,0,0,0h-78.7c-9.1,0-16.5,7.4-16.5,16.5L232.9,304z"/>
</g>
<g id="Desk_receptionist-62">
	<path class="st0_receptionist-62" d="M377,267.4h87.8c5.3,0,9.6,4.3,9.6,9.6v62.4c0,5.3-4.3,9.6-9.6,9.6H377c-5.3,0-9.6-4.3-9.6-9.6V277&#10;&#9;&#9;C367.4,271.7,371.7,267.4,377,267.4z"/>
	<path class="st2_receptionist-62" d="M464.7,349.7H377c-5.7,0-10.3-4.6-10.3-10.3V277c0-5.7,4.6-10.3,10.3-10.3h87.8c5.7,0,10.3,4.6,10.3,10.3v62.4&#10;&#9;&#9;C475.1,345.1,470.4,349.7,464.7,349.7z M377,268.2c-4.9,0-8.8,4-8.8,8.8v62.4c0,4.9,4,8.8,8.8,8.8h87.8c4.9,0,8.8-4,8.8-8.8V277&#10;&#9;&#9;c0-4.9-4-8.8-8.8-8.8H377z"/>
	<path class="st0_receptionist-62" d="M399.2,348.9H39.7c-4.2,0-7.6-3.4-7.6-7.6V275c0-4.2,3.4-7.6,7.6-7.6h359.5c4.2,0,7.6,3.4,7.6,7.6v66.3&#10;&#9;&#9;C406.8,345.5,403.4,348.9,399.2,348.9z"/>
	<path class="st2_receptionist-62" d="M399.2,349.7H39.8c-4.6,0-8.4-3.7-8.4-8.4V275c0-4.6,3.8-8.4,8.4-8.4h359.5c4.6,0,8.4,3.7,8.4,8.4v66.3&#10;&#9;&#9;C407.6,345.9,403.8,349.7,399.2,349.7C399.2,349.7,399.2,349.7,399.2,349.7z M39.8,268.2c-3.8,0-6.8,3.1-6.9,6.8v66.3&#10;&#9;&#9;c0,3.8,3.1,6.9,6.9,6.9h359.5c3.8,0,6.9-3.1,6.9-6.9V275c0-3.8-3.1-6.9-6.9-6.9L39.8,268.2z"/>
	<rect x="47.2" y="348.9" class="st0_receptionist-62" width="411.4" height="89.3"/>
	<path class="st2_receptionist-62" d="M458.6,439H47.2c-0.4,0-0.7-0.3-0.8-0.8V349c0-0.4,0.3-0.7,0.8-0.8h411.4c0.4,0,0.7,0.3,0.8,0.8v89.3&#10;&#9;&#9;C459.3,438.7,459,439,458.6,439z M48,437.5h409.8v-87.8H48V437.5z"/>
	<line class="st3_receptionist-62" x1="394.3" y1="349" x2="394.3" y2="437.6"/>
	<path class="st2_receptionist-62" d="M394.3,438.3c-0.4,0-0.7-0.3-0.8-0.8V349c0-0.4,0.3-0.8,0.8-0.8s0.8,0.3,0.8,0.8v88.6&#10;&#9;&#9;C395,438,394.7,438.3,394.3,438.3z"/>
	<path class="st0_receptionist-62" d="M74.7,244.7h7.5c0.5,0,0.9,0.4,0.9,0.9v3.9c0,0.5-0.4,0.9-0.9,0.9h-7.5c-0.5,0-0.9-0.4-0.9-0.9v-3.9&#10;&#9;&#9;C73.8,245.1,74.2,244.7,74.7,244.7z"/>
	<path class="st2_receptionist-62" d="M82.1,251.1h-7.4c-0.9,0-1.6-0.7-1.6-1.6v-3.9c0-0.9,0.7-1.6,1.6-1.6h7.4c0.9,0,1.6,0.7,1.6,1.6l0,0v3.9&#10;&#9;&#9;C83.8,250.4,83,251.1,82.1,251.1L82.1,251.1z M74.7,245.4c-0.1,0-0.1,0-0.1,0.1c0,0,0,0,0,0v3.9c0,0.1,0.1,0.1,0.1,0.1c0,0,0,0,0,0&#10;&#9;&#9;h7.4c0.1,0,0.1-0.1,0.1-0.1l0,0v-3.9c0-0.1-0.1-0.1-0.1-0.1l0,0H74.7z"/>
	<path class="st0_receptionist-62" d="M58.8,267.2c0-10.8,8.8-19.6,19.6-19.6s19.6,8.8,19.6,19.6c0,0,0,0,0,0H58.8z"/>
	<path class="st2_receptionist-62" d="M98.1,267.9H58.8c-0.4,0-0.7-0.3-0.8-0.8c-0.2-11.3,8.7-20.6,19.9-20.8s20.6,8.7,20.8,19.9c0,0.3,0,0.6,0,0.9&#10;&#9;&#9;C98.8,267.6,98.5,267.9,98.1,267.9z M59.5,266.4h37.8c-0.3-10.4-9.1-18.6-19.5-18.3C67.9,248.5,59.9,256.5,59.5,266.4z"/>
	<path class="st0_receptionist-62" d="M57.7,260.7h41.4c0.9,0,1.6,0.7,1.6,1.6v3.4c0,0.9-0.7,1.6-1.6,1.6H57.7c-0.9,0-1.6-0.7-1.6-1.6v-3.4&#10;&#9;&#9;C56.1,261.4,56.8,260.7,57.7,260.7z"/>
	<path class="st2_receptionist-62" d="M99.1,268.1H57.7c-1.3,0-2.4-1.1-2.4-2.4v-3.5c0-1.3,1.1-2.4,2.4-2.4h41.4c1.3,0,2.4,1.1,2.4,2.4v3.5&#10;&#9;&#9;C101.5,267.1,100.4,268.1,99.1,268.1z M57.7,261.4c-0.5,0-0.9,0.4-0.9,0.9c0,0,0,0,0,0v3.5c0,0.5,0.4,0.9,0.9,0.9c0,0,0,0,0,0h41.4&#10;&#9;&#9;c0.5,0,0.9-0.4,0.9-0.9v-3.5c0-0.5-0.4-0.9-0.9-0.9c0,0,0,0,0,0L57.7,261.4z"/>
</g>
<g id="Plant_receptionist-62">
	<path class="st0_receptionist-62" d="M416.7,390c4.1-3.6,8.7-6.6,13.6-8.9c0.4,14.6-5.5,28-11,37.1h-17.7"/>
	<path class="st2_receptionist-62" d="M419.4,419h-17.8c-0.4,0-0.8-0.3-0.8-0.8s0.3-0.8,0.8-0.8h17.3c5-8.5,10.8-21.3,10.7-35.2&#10;&#9;&#9;c-4.5,2.2-8.7,5-12.4,8.3c-0.3,0.3-0.8,0.2-1.1-0.1c0,0,0,0,0,0c-0.3-0.3-0.2-0.8,0.1-1.1c4.1-3.7,8.8-6.7,13.8-9&#10;&#9;&#9;c0.2-0.1,0.5-0.1,0.7,0.1c0.2,0.1,0.3,0.4,0.3,0.6c0.4,15-5.8,28.7-11.1,37.6C419.9,418.9,419.6,419,419.4,419z"/>
	<path class="st0_receptionist-62" d="M391.2,393.9c4.4-22.8,22.2-37.1,22.2-37.1c3.7,11.2,4.2,22.8,3.2,33.2c-0.9,9.6-3,19.1-6.1,28.3h-19.1"/>
	<path class="st2_receptionist-62" d="M410.6,419h-19.1c-0.4,0-0.8-0.3-0.8-0.8s0.3-0.8,0.8-0.8H410c3.1-8.9,5.1-18.2,6-27.6&#10;&#9;&#9;c1.1-10.7,0.2-21.5-2.9-31.8c-3.6,3.2-17.4,16.5-21.1,36c-0.1,0.4-0.5,0.6-0.9,0.5c-0.4-0.1-0.6-0.5-0.6-0.8&#10;&#9;&#9;c4.4-22.8,22.3-37.4,22.5-37.5c0.2-0.2,0.4-0.2,0.7-0.1c0.2,0.1,0.4,0.2,0.5,0.5c3.3,10,4.4,21.3,3.3,33.5&#10;&#9;&#9;c-0.9,9.7-3,19.2-6.2,28.4C411.2,418.8,410.9,419,410.6,419z"/>
	<path class="st0_receptionist-62" d="M381.8,418.3h16.9c0.2-5-1-12.6-6.4-22.5c-0.4-0.7-0.7-1.3-1.1-1.9c-9.8-16.6-18.8-16.4-18.8-16.4&#10;&#9;&#9;C368.7,395,376.7,410.5,381.8,418.3z"/>
	<path class="st2_receptionist-62" d="M398.7,419h-16.9c-0.3,0-0.5-0.1-0.6-0.3c-5.2-7.8-13.3-23.6-9.5-41.3c0.1-0.3,0.4-0.6,0.7-0.6&#10;&#9;&#9;c0.4,0,9.5,0,19.4,16.8c0.4,0.6,0.7,1.2,1.1,1.9c5.6,10.2,6.7,18.1,6.5,22.8C399.5,418.7,399.1,419,398.7,419z M382.2,417.5H398&#10;&#9;&#9;c0-4.6-1.1-11.9-6.3-21.3l-1.1-1.9c-8-13.6-15.4-15.7-17.5-16C369.7,395,377.2,409.9,382.2,417.5L382.2,417.5z"/>
	<polygon class="st2_receptionist-62" points="384.9,445.1 418.1,445.1 423.4,418.3 379.5,418.3 &#9;"/>
	<path class="st2_receptionist-62" d="M418.1,445.8h-33.2c-0.4,0-0.7-0.2-0.7-0.6l-5.4-26.8c0-0.2,0-0.5,0.2-0.6c0.1-0.2,0.4-0.3,0.6-0.3h43.9&#10;&#9;&#9;c0.2,0,0.4,0.1,0.6,0.3c0.1,0.2,0.2,0.4,0.1,0.6l-5.3,26.8C418.7,445.6,418.4,445.8,418.1,445.8z M385.5,444.3h32l5-25.3h-42&#10;&#9;&#9;L385.5,444.3z"/>
</g>
<g id="background_receptionist-62">
	<rect x="92.9" y="97.3" class="st0_receptionist-62" width="79.5" height="56.8"/>
	<path class="st1_receptionist-62" d="M172.4,154.8H92.9c-0.4,0-0.8-0.3-0.8-0.8V97.3c0-0.4,0.3-0.8,0.8-0.8h79.5c0.4,0,0.7,0.3,0.8,0.8v56.8&#10;&#9;&#9;C173.1,154.5,172.8,154.8,172.4,154.8z M93.6,153.3h78V98.1h-78V153.3z"/>
	<path class="st1_receptionist-62" d="M162,114.1h-58.7c-0.4,0-0.8-0.3-0.8-0.8s0.3-0.8,0.8-0.8H162c0.4,0,0.8,0.3,0.8,0.8S162.4,114.1,162,114.1z"/>
	<path class="st1_receptionist-62" d="M162,126.4h-58.7c-0.4,0-0.8-0.3-0.8-0.8s0.3-0.8,0.8-0.8H162c0.4,0,0.8,0.3,0.8,0.8S162.4,126.4,162,126.4z"/>
	<path class="st1_receptionist-62" d="M162,138.8h-58.7c-0.4,0-0.8-0.3-0.8-0.8s0.3-0.8,0.8-0.8H162c0.4,0,0.8,0.3,0.8,0.8S162.4,138.8,162,138.8z"/>
	<path class="st1_receptionist-62" d="M131.7,100.7c-0.4,0-0.7-0.3-0.7-0.7v-7.9c0-0.4,0.3-0.8,0.8-0.8s0.8,0.3,0.8,0.8v7.9&#10;&#9;&#9;C132.5,100.4,132.2,100.7,131.7,100.7C131.7,100.7,131.7,100.7,131.7,100.7z"/>
</g>
<g id="character_receptionist-62">
	<path class="st2_receptionist-62" d="M286.2,141.1c-0.4,0-0.8-0.3-0.8-0.8s0.3-0.8,0.8-0.8c2.6,0,5.2-1.6,7.8-4.8c11.8-14.1,6.2-36-6.2-47&#10;&#9;&#9;c-10.6-9.3-25.8-11-36.8-3.9s-14.3,16.3-10.8,29.9c0.1,0.4-0.1,0.8-0.5,0.9s-0.8-0.1-0.9-0.5c0,0,0-0.1,0-0.1&#10;&#9;&#9;c-3.7-14.4-0.2-24.2,11.4-31.6s27.4-5.7,38.5,4.1c12.9,11.4,18.8,34.3,6.4,49.1C292.2,139.3,289.2,141.1,286.2,141.1L286.2,141.1z"/>
	<path class="st4_receptionist-62 targetColor" d="M262,153.8c0,0-35.2-0.8-44,13.7s-36.1,99.3-36.1,99.3l121.9,0.2c0,0,6.2-53.7,1.6-75.9&#10;&#9;&#9;C299.9,165.1,303.8,148,262,153.8z" style="fill: rgb(104, 225, 253);"/>
	<path class="st2_receptionist-62" d="M242.5,155.2c0,0-3.2,17.3-2.4,23.6c1.1,8.5,0.6,22,19.2,21.4c14.6-0.5,30.6-45.2,30.6-45.2&#10;&#9;&#9;S263.2,150.5,242.5,155.2z"/>
	<path class="st2_receptionist-62" d="M258,200.9c-16.3,0-17.5-11.3-18.4-19.6c-0.1-0.9-0.2-1.7-0.3-2.5c-0.8-6.3,2.2-23.1,2.4-23.8&#10;&#9;&#9;c0.1-0.3,0.3-0.5,0.6-0.6c20.6-4.7,47.4-0.3,47.7-0.2c0.4,0.1,0.7,0.5,0.6,0.9c0,0,0,0.1,0,0.1c-0.7,1.8-16.3,45.2-31.2,45.7&#10;&#9;&#9;L258,200.9z M243.1,155.8c-0.5,2.9-3,17.4-2.3,22.9c0.1,0.8,0.2,1.6,0.3,2.5c0.9,8.4,2,18.8,18.1,18.2c5.7-0.2,12.6-7.9,20.1-22.4&#10;&#9;&#9;c3.6-7,6.7-14.1,9.5-21.4C284.1,154.9,261.3,151.8,243.1,155.8L243.1,155.8z"/>
	<path class="st2_receptionist-62" d="M243.1,155.8c-0.5,2.8-3,17.4-2.3,22.9c0.1,0.8,0.2,1.6,0.3,2.5c0.9,8.4,2,18.8,18.1,18.2&#10;&#9;&#9;c12.9-0.4,27.3-37.8,29.6-43.9C284.2,154.8,261.3,151.8,243.1,155.8z"/>
	<path class="st2_receptionist-62" d="M258,200.2c-15.6,0-16.8-10.9-17.6-18.9v-0.2c-0.1-0.8-0.2-1.6-0.3-2.3c-0.7-5.6,1.8-20.2,2.3-23.1&#10;&#9;&#9;c0.1-0.3,0.3-0.5,0.6-0.6c18.4-4,41.6-0.9,46-0.3c0.2,0,0.4,0.2,0.5,0.4c0.1,0.2,0.1,0.4,0,0.6c-2.7,7.3-17.1,43.9-30.3,44.4&#10;&#9;&#9;L258,200.2z M243.7,156.4c-0.6,3.7-2.8,17-2.2,22.1c0.1,0.8,0.2,1.5,0.3,2.3v0.2c0.9,8.5,1.9,18.1,17.4,17.6&#10;&#9;&#9;c11.9-0.4,25.9-35.3,28.6-42.5C281.8,155.3,260.8,152.8,243.7,156.4L243.7,156.4z"/>
	<path class="st0_receptionist-62" d="M245.6,121.6c-0.4-1.5-1.2-2.8-2.2-4c-1.1-1.2-2.7-1.6-4.2-1c-1,0.6-1.7,1.7-1.8,2.9c-0.1,1.2,0.1,2.3,0.6,3.4&#10;&#9;&#9;c0.7,2.1,1.8,4,3.4,5.5c1.6,1.5,3.7,2.4,5.9,2.3"/>
	<path class="st2_receptionist-62" d="M246.8,131.4c-2.2-0.1-4.4-1-5.9-2.5c-1.6-1.6-2.8-3.6-3.5-5.8c-0.5-1.2-0.7-2.5-0.6-3.8&#10;&#9;&#9;c0.1-1.4,0.9-2.7,2.2-3.4c1.8-0.8,3.8-0.3,5.1,1.1c1.1,1.3,1.9,2.7,2.4,4.3c0.1,0.4-0.1,0.8-0.5,0.9c-0.3,0.1-0.7-0.1-0.9-0.4&#10;&#9;&#9;c-0.4-1.4-1.1-2.7-2-3.8c-0.8-0.9-2.2-1.3-3.3-0.9c-0.8,0.5-1.3,1.3-1.4,2.3c0,1.1,0.1,2.1,0.5,3.1c0.6,2,1.7,3.7,3.1,5.2&#10;&#9;&#9;c1.4,1.4,3.3,2.2,5.3,2.1c0.4,0,0.8,0.3,0.8,0.7c0,0.4-0.3,0.8-0.7,0.8c0,0,0,0,0,0C247.2,131.4,247,131.4,246.8,131.4z"/>
	<path class="st0_receptionist-62" d="M253.8,142.2l-1.8,18.4c0,0,0.9,10.4,12.4,8.4c6.9-1.3,12.8-5.6,16.1-11.8l1.7-31.9c0.1-1.3-4.9-7-3.6-18.6&#10;&#9;&#9;c-7.9-0.8-15.2-4.9-20-11.3c0,0-5.3,6.6-7.6,8.6c-1.8,1.5-3.4,3.2-4.7,5.2c-3.5,5.3-3.4,14.1-2.6,20.2&#10;&#9;&#9;C244.5,134.3,247.4,142.4,253.8,142.2z"/>
	<path class="st2_receptionist-62" d="M261.5,170c-2.3,0.1-4.5-0.6-6.3-1.9c-2.2-1.8-3.7-4.5-4-7.4c0,0,0-0.1,0-0.1L253,143&#10;&#9;&#9;c-6.4-0.6-9.2-8.7-9.9-13.6c-0.6-4.1-1.5-14.4,2.7-20.7c1.4-2,3-3.7,4.8-5.3c2.2-2,7.4-8.4,7.5-8.5c0.2-0.2,0.4-0.3,0.6-0.3&#10;&#9;&#9;c0.2,0,0.5,0.1,0.6,0.3c4.7,6.2,11.7,10.2,19.4,11c0.2,0,0.4,0.1,0.5,0.3c0.1,0.2,0.2,0.4,0.2,0.6c-0.8,5.6,0.2,11.4,2.8,16.4&#10;&#9;&#9;c0.4,0.7,0.7,1.4,0.8,2.2l-1.7,31.9c0,0.1,0,0.2-0.1,0.3c-3.4,6.4-9.5,10.9-16.6,12.2C263.5,169.9,262.5,170,261.5,170z&#10;&#9;&#9; M252.7,160.6c0.3,2.4,1.5,4.7,3.4,6.2c2,1.5,4.7,2,8.1,1.4c6.6-1.3,12.2-5.4,15.5-11.2c1.7-31.8,1.7-31.8,1.7-31.8&#10;&#9;&#9;c-0.2-0.5-0.4-1-0.6-1.4c-2.6-5.1-3.6-10.8-3-16.5c-7.5-1-14.4-4.8-19.2-10.8c-2.2,2.8-4.5,5.4-7,7.9c-1.7,1.5-3.3,3.1-4.6,5&#10;&#9;&#9;c-3.9,5.9-3,15.7-2.4,19.7c0.6,4.6,3.3,12.4,9.1,12.4h0.1c0.4,0,0.8,0.3,0.8,0.8c0,0,0,0,0,0.1L252.7,160.6z"/>
	<path class="st2_receptionist-62" d="M253.1,147.8c-0.2-0.2,3.2,1.6,9.1-0.5c6.5-2.3,6.9-6.8,6.9-6.8s-5.5,3.4-15.2,1.6L253.1,147.8z"/>
	<path class="st2_receptionist-62" d="M256.6,149.1c-1.2,0-2.5-0.2-3.6-0.5c-0.1,0-0.3-0.1-0.4-0.2c-0.2-0.2-0.3-0.5-0.2-0.8l0.7-5.5&#10;&#9;&#9;c0-0.2,0.1-0.4,0.3-0.5c0.2-0.1,0.4-0.2,0.6-0.1c9.3,1.7,14.6-1.5,14.7-1.6c0.2-0.1,0.5-0.1,0.8,0c0.2,0.1,0.4,0.4,0.4,0.7&#10;&#9;&#9;c0,0.2-0.5,5-7.4,7.4C260.5,148.7,258.6,149.1,256.6,149.1z M253.9,147.3c2.7,0.6,5.5,0.4,8-0.6c3.7-1.3,5.3-3.3,5.9-4.6&#10;&#9;&#9;c-4.3,1.6-8.9,1.9-13.4,1.1L253.9,147.3z"/>
	<path class="st0_receptionist-62" d="M263.8,111.2c0,0-6.7,8.3-5.5,9.9s5.3,1,5.3,1"/>
	<path class="st2_receptionist-62" d="M261.9,123c-1.4,0-3.2-0.3-4.1-1.4c-1.4-1.8,2.8-7.6,5.5-10.9c0.3-0.3,0.8-0.4,1.1-0.1&#10;&#9;&#9;c0.3,0.3,0.4,0.8,0.1,1.1l0,0c-3.2,4-5.8,8.2-5.5,9c0.8,1,3.6,0.9,4.6,0.7c0.4-0.1,0.8,0.2,0.9,0.6c0.1,0.4-0.2,0.8-0.6,0.9&#10;&#9;&#9;c0,0,0,0,0,0C263.1,123,262.5,123,261.9,123z"/>
	<ellipse transform="matrix(0.1326 -0.9912 0.9912 0.1326 110.1059 351.8021)" class="st2_receptionist-62" cx="256.1" cy="113" rx="1.9" ry="1"/>
	
		<ellipse transform="matrix(1.169341e-02 -0.9999 0.9999 1.169341e-02 154.445 384.8114)" class="st2_receptionist-62" cx="271.9" cy="114.3" rx="1.9" ry="1"/>
	<path class="st0_receptionist-62" d="M278.2,118.2c0.4-1.6,1.1-3.1,2.1-4.4c1.1-1.5,2.9-2.4,4.8-2.4c1.2,0,2.3,0.6,2.9,1.6c0.4,0.7,0.7,1.4,0.7,2.2&#10;&#9;&#9;c0.6,4.1-0.8,9.4-4.6,11.5c-1.3,0.8-3,0.8-4.3,0"/>
	<path class="st2_receptionist-62" d="M281.7,128.1c-0.8,0-1.7-0.2-2.4-0.8c-0.3-0.3-0.4-0.7-0.1-1.1c0.2-0.3,0.7-0.4,1-0.1c1.1,0.6,2.5,0.6,3.5-0.1&#10;&#9;&#9;c3.5-1.9,4.8-6.9,4.2-10.7c-0.1-0.7-0.3-1.3-0.6-1.9c-0.5-0.7-1.4-1.2-2.3-1.2c-1.6,0-3.2,0.8-4.1,2.1c-0.9,1.2-1.6,2.6-1.9,4.1&#10;&#9;&#9;c-0.1,0.4-0.5,0.6-0.9,0.5c-0.4-0.1-0.6-0.5-0.5-0.9c0.4-1.7,1.2-3.2,2.2-4.6c1.3-1.7,3.3-2.7,5.4-2.7c1.4,0.1,2.7,0.8,3.5,1.9&#10;&#9;&#9;c0.5,0.8,0.8,1.6,0.9,2.5c0.6,4.4-0.9,10-5,12.3C283.6,127.8,282.6,128.1,281.7,128.1z"/>
	<path class="st0_receptionist-62" d="M253.6,125.9l17.7,0.5c0,0-2.4,9.4-9.9,9S253.6,125.9,253.6,125.9z"/>
	<path class="st2_receptionist-62" d="M262,136.1h-0.6c-8.1-0.5-8.5-10.1-8.5-10.2c0-0.2,0.1-0.4,0.2-0.6c0.2-0.1,0.3-0.2,0.6-0.2l17.7,0.5&#10;&#9;&#9;c0.4,0,0.7,0.4,0.7,0.8c0,0.1,0,0.1,0,0.2C272,126.7,269.6,136.1,262,136.1z M254.5,126.7c0.2,2.1,1.4,7.6,7,7.9s8-5.2,8.8-7.5&#10;&#9;&#9;L254.5,126.7z"/>
	<path class="st2_receptionist-62" d="M225.7,184.1c-0.4,1.5-8.2,50-12.3,75.5"/>
	<path class="st2_receptionist-62" d="M213.5,260.4h-0.1c-0.4-0.1-0.7-0.4-0.6-0.8c0,0,0,0,0,0c0.5-3,11.8-73.7,12.3-75.6c0.1-0.4,0.5-0.6,0.9-0.5&#10;&#9;&#9;c0,0,0,0,0,0c0.4,0.1,0.6,0.5,0.5,0.9c-0.4,1.4-8.2,50-12.2,75.5C214.1,260.2,213.8,260.4,213.5,260.4z"/>
	<path class="st4_receptionist-62 targetColor" d="M297,160.2c0,0,32.4,45.8,35.7,46.2s29.9-35.4,29.9-35.4l18.5,17.9c0,0-31.7,67.3-45.9,64S292,208.5,292,208.5&#10;&#9;&#9;L297,160.2z" style="fill: rgb(104, 225, 253);"/>
	<path class="st2_receptionist-62" d="M302.5,113.7c0,0,4.4-8.1-1.5-19.6s-16-18.1-19.5-17.9s-10.2,2.5-10.2,2.5S297.5,82.1,302.5,113.7z"/>
	<path class="st2_receptionist-62" d="M302.5,114.4h-0.1c-0.3,0-0.6-0.3-0.6-0.6c-2.5-16-10.6-24.5-17-28.8c-4-2.8-8.6-4.7-13.5-5.6&#10;&#9;&#9;c-0.4,0-0.7-0.4-0.7-0.8c0-0.3,0.2-0.5,0.5-0.6c0.3-0.1,6.8-2.3,10.4-2.6c4.2-0.3,14.4,6.9,20.2,18.3c6,11.8,1.7,20,1.5,20.3&#10;&#9;&#9;C303,114.3,302.7,114.5,302.5,114.4z M274.1,78.6c6.7,1.9,23.7,8.8,28.5,32.2c0.8-3.2,1.3-9.1-2.4-16.4&#10;&#9;&#9;c-5.6-10.9-15.2-17.5-18.6-17.5h-0.2C279,77.2,276.5,77.8,274.1,78.6z"/>
	<polygon class="st0_receptionist-62" points="272.4,210.5 292.5,210.7 293.2,203.4 273.8,203.1 &#9;"/>
	<path class="st2_receptionist-62" d="M292.5,211.4L292.5,211.4l-20.1-0.2c-0.2,0-0.4-0.1-0.6-0.3c-0.1-0.2-0.2-0.4-0.1-0.6l1.5-7.3&#10;&#9;&#9;c0.1-0.4,0.4-0.6,0.7-0.6l0,0l19.3,0.2c0.2,0,0.4,0.1,0.5,0.2c0.1,0.2,0.2,0.4,0.2,0.6l-0.6,7.3&#10;&#9;&#9;C293.2,211.1,292.9,211.4,292.5,211.4z M273.3,209.7l18.5,0.2l0.5-5.8l-17.9-0.2L273.3,209.7z"/>
	<path class="st2_receptionist-62" d="M332.7,252.7c-0.1,0-0.3,0-0.4-0.1c-18.9-12.1-30.3-31.3-34.4-39c-0.1-0.2-0.2-0.3-0.2-0.4&#10;&#9;&#9;c-0.2-0.4-0.1-0.8,0.2-1c0.4-0.2,0.8-0.1,1,0.2c0,0,0.1,0.2,0.2,0.5c4,7.6,15.2,26.5,33.8,38.4c0.3,0.2,0.4,0.7,0.2,1&#10;&#9;&#9;C333.2,252.6,333,252.7,332.7,252.7L332.7,252.7z"/>
	<path class="st0_receptionist-62" d="M365.4,172.2c0,0,10-25.2,11.8-24.6s-1.3,13.7-1.3,13.7s12.5-13.6,14.1-12.8s0.6,4.3-4.1,11.2&#10;&#9;&#9;c0,0,8.3-9.6,9.6-7.6s-6.9,10.6-6.9,10.6s7.9-8.3,9-6.6s-7.4,10.3-7.4,10.3s8-9.3,8.5-6.4s-15.2,21.6-19.8,26.7"/>
	<path class="st2_receptionist-62" d="M378.9,187.4c-0.4,0-0.8-0.3-0.8-0.7c0-0.2,0.1-0.4,0.2-0.5c8.3-9.4,19.6-23.7,19.6-26&#10;&#9;&#9;c-1.4,0.7-2.6,1.7-3.6,2.9c-1.1,1.3-2.4,2.6-3.6,3.9c-0.3,0.3-0.7,0.3-1,0c-0.3-0.3-0.3-0.7-0.1-1c1-1.1,2.2-2.5,3.5-3.8&#10;&#9;&#9;c2.1-2.5,3.6-4.6,3.8-5.4c-1.1,0.3-4.5,3.1-7.7,6.5l-0.1,0.1c-0.3,0.3-0.8,0.3-1.1,0c-0.3-0.3-0.3-0.8,0-1c0,0,0,0,0,0l0,0l0,0&#10;&#9;&#9;c3.9-4.1,7.1-8.6,6.8-9.6c-1,0-4.9,3.4-8.5,7.6c-0.3,0.3-0.7,0.3-1,0.1c-0.3-0.2-0.4-0.7-0.2-1c4.5-6.6,4.9-8.9,4.7-9.7&#10;&#9;&#9;c0-0.1-0.1-0.2-0.2-0.3c-1.5,0.4-8,6.7-13.3,12.5c-0.2,0.3-0.6,0.3-0.9,0.2c-0.3-0.2-0.5-0.5-0.4-0.8c1.2-5,2.1-10.7,1.8-12.5&#10;&#9;&#9;c-1.8,2.2-6.7,13.4-10.8,23.8c-0.1,0.4-0.6,0.6-1,0.4c0,0,0,0,0,0c-0.4-0.1-0.6-0.6-0.4-0.9c0,0,0,0,0-0.1&#10;&#9;&#9;c10.3-25.9,12-25.3,12.7-25c1.4,0.5,1.3,4.5-0.2,11.9c11.2-11.9,12.6-11.1,13.2-10.9c0.5,0.3,0.9,0.8,1,1.4c0.2,0.8,0.2,2.1-1.3,5&#10;&#9;&#9;c1.9-1.8,3.8-3.2,5-3.1c0.4,0,0.8,0.2,1.1,0.6c0.3,0.5,0.5,1.6-1.1,4.3c0.6-0.5,1.4-0.8,2.2-0.9c0.4,0,0.7,0.2,1,0.6&#10;&#9;&#9;c0.4,0.6,0.1,1.8-0.7,3.1c0.3-0.1,0.6-0.1,1-0.1c0.5,0.2,0.9,0.6,1,1.1c0.7,3.8-19.7,27.1-19.9,27.4&#10;&#9;&#9;C379.3,187.4,379.1,187.5,378.9,187.4z"/>
	<path class="st0_receptionist-62" d="M375.8,161.3c2.5,1.6,3.5,4.7,2.4,7.4"/>
	<path class="st2_receptionist-62" d="M378.1,169.5c-0.4,0-0.8-0.4-0.7-0.8c0-0.1,0-0.1,0-0.2c1-2.4,0.2-5.1-2-6.6c-0.3-0.2-0.4-0.7-0.2-1&#10;&#9;&#9;c0.2-0.3,0.6-0.4,1-0.2c2.8,1.8,3.9,5.3,2.7,8.3C378.8,169.3,378.5,169.5,378.1,169.5z"/>
	<path class="st2_receptionist-62" d="M306.1,110.2c-0.4,0-0.7-0.3-0.7-0.8c0-0.3,0.2-0.6,0.5-0.7c3.3-1.4,6-4.1,7.3-7.5c1.3-3.3,1.9-6.9,1.7-10.5&#10;&#9;&#9;c-0.1-5.2-1.2-9.3-3.2-12.5c-2.9-4.6-8.3-8-14.8-9.1c-2.5-0.6-5.2-0.5-7.6,0.3c-2.4,0.8-4.2,2.7-4.9,5.1c-0.1,0.4-0.5,0.7-0.9,0.6&#10;&#9;&#9;c-0.4-0.1-0.7-0.5-0.6-0.9c0.8-2.9,3-5.3,5.8-6.2c2.7-0.9,5.6-1,8.4-0.4c6.9,1.2,12.7,4.8,15.8,9.8c2.2,3.5,3.3,7.8,3.4,13.2&#10;&#9;&#9;c0.2,3.8-0.4,7.6-1.8,11.1c-1.5,3.7-4.4,6.7-8.1,8.3C306.3,110.2,306.2,110.3,306.1,110.2z"/>
</g>
<g id="Laptop_receptionist-62">
	<path class="st2_receptionist-62" d="M104.1,201.9h80.1c2.1,0,4,1.4,4.5,3.5l14.8,54.1h52c1.8,0,3.3,1.5,3.3,3.3c0,1.8-1.5,3.3-3.3,3.3H119.1&#10;&#9;&#9;c-2.1,0-4-1.4-4.5-3.5l-15-54.7c-0.7-2.5,0.8-5.1,3.3-5.8C103.3,201.9,103.7,201.9,104.1,201.9z"/>
	<path class="st2_receptionist-62" d="M255.6,266.7H119.1c-2.5,0-4.6-1.6-5.3-4l-15-54.7c-0.8-2.9,0.9-5.9,3.8-6.7c0.5-0.1,1-0.2,1.5-0.2h80.1&#10;&#9;&#9;c2.5,0,4.6,1.6,5.3,4l14.7,53.5h51.4c2.2,0,4,1.8,4,4.1C259.7,264.9,257.9,266.7,255.6,266.7L255.6,266.7z M104.1,202.6&#10;&#9;&#9;c-2.2,0-4,1.9-3.9,4.1c0,0.3,0,0.6,0.1,0.9l15,54.7c0.5,1.7,2,2.9,3.8,2.9h136.5c1.4,0,2.5-1.1,2.5-2.6c0-1.4-1.1-2.5-2.5-2.5h-52&#10;&#9;&#9;c-0.3,0-0.6-0.2-0.7-0.5L188,205.5c-0.5-1.7-2-2.9-3.8-2.9H104.1z"/>
	<path class="st2_receptionist-62" d="M104.1,202.6c-2.2,0-4,1.8-4,4c0,0.3,0,0.7,0.1,1l15,54.7c0.5,1.7,2,2.9,3.8,2.9h136.5c1.4,0,2.6-1.2,2.6-2.6&#10;&#9;&#9;c0-1.4-1.2-2.6-2.6-2.6h-52c-0.3,0-0.6-0.2-0.7-0.5l-14.8-54.1c-0.5-1.7-2.1-2.9-3.8-2.9L104.1,202.6z"/>
	<path class="st2_receptionist-62" d="M255.6,266H119.1c-2.1,0-4-1.4-4.6-3.5l-15-54.7c-0.7-2.5,0.8-5.1,3.3-5.8c0.4-0.1,0.8-0.2,1.3-0.2h80.1&#10;&#9;&#9;c2.1,0,4,1.4,4.6,3.5l14.8,54.1h52c1.8,0.1,3.2,1.7,3.1,3.5C258.7,264.6,257.3,265.9,255.6,266L255.6,266z M104.1,203.3&#10;&#9;&#9;c-1.8,0-3.2,1.4-3.2,3.2c0,0.3,0,0.6,0.1,0.9l15,54.7c0.4,1.4,1.7,2.4,3.1,2.4h136.5c1-0.1,1.8-1,1.7-2c-0.1-0.9-0.8-1.6-1.7-1.7&#10;&#9;&#9;h-52c-0.7,0-1.3-0.4-1.4-1.1l-14.8-54.1c-0.4-1.4-1.7-2.4-3.1-2.4L104.1,203.3z"/>
	<path class="st0_receptionist-62" d="M202.1,259.5h-81.8c-0.4,0-0.8-0.3-0.8-0.8s0.3-0.8,0.8-0.8l0,0h81.8c0.4,0,0.8,0.3,0.8,0.8&#10;&#9;&#9;S202.6,259.5,202.1,259.5z"/>
</g>
</svg>