<svg version="1.1" id="Layer_1" xmlns="http://www.w3.org/2000/svg" xmlns:xlink="http://www.w3.org/1999/xlink" x="0px" y="0px" viewBox="0 0 500 500" style="width: 136px;" xml:space="preserve" data-imageid="salesman-15" imageName="Salesman" class="illustrations_image">
<style type="text/css">
	.st0_salesman-15{fill:#CB9BEA;}
	.st1_salesman-15{fill:url(#SVGID_1_);}
	.st2_salesman-15{fill:#68E1FD;}
	.st3_salesman-15{opacity:0.15;fill:#252726;enable-background:new    ;}
	.st4_salesman-15{opacity:0.7;fill:#252726;enable-background:new    ;}
	.st5_salesman-15{fill:#938F05;}
	.st6_salesman-15{fill:#252726;}
	.st7_salesman-15{fill:url(#SVGID_00000167387592360639368110000011041099130601362363_);}
	.st8_salesman-15{fill:#EA8B24;}
	.st9_salesman-15{fill:#FFB92C;}
	.st10_salesman-15{fill:url(#SVGID_00000085932048010160900180000008592967899461604778_);}
	.st11_salesman-15{fill:#060094;}
	.st12_salesman-15{fill:#F4F4F4;}
	.st13_salesman-15{fill:url(#SVGID_00000147179651537009352050000016104855688822503296_);}
	.st14_salesman-15{fill:#F9D7B4;}
	.st15_salesman-15{opacity:0.1;fill:#252726;enable-background:new    ;}
	.st16_salesman-15{fill:#C1272D;}
	.st17_salesman-15{opacity:0.3;fill:#252726;enable-background:new    ;}
</style>
<path id="field_salesman-15" class="st0_salesman-15" d="M243.1,424L27,296.3c-6.9-3.9-12.8-10.2-6-14.4l216.9-125c3.2-2,8.2-3.3,11.5-1.4l226.8,131.7&#10;&#9;c6.9,4,8.1,15.1,1.2,19.1L271.6,423.8C262.8,428.9,252,429,243.1,424z"/>
<g id="plant_salesman-15">
	
		<linearGradient id="SVGID_1_-salesman-15" gradientUnits="userSpaceOnUse" x1="442.7118" y1="221.7645" x2="386.3118" y2="178.6845" gradientTransform="matrix(1 0 0 -1 0 502)">
		<stop offset="0" style="stop-color:#060094"/>
		<stop offset="1" style="stop-color:#CB9BEA;stop-opacity:0"/>
	</linearGradient>
	<path class="st1_salesman-15" d="M378,341l52.3-29.6l-28-12.6l-44.7,24.9C364.1,329.8,370.9,335.6,378,341z"/>
	<path class="st2_salesman-15 targetColor" d="M402.2,276c0,0-5.6,38.4,18.6,38.5c23.2,0.1,17.2-39,17.2-39S421.1,260.9,402.2,276z" style="fill: rgb(104, 225, 253);"/>
	<path class="st3_salesman-15" d="M402.2,276c0,0-5.6,38.4,18.6,38.5c23.2,0.1,17.2-39,17.2-39S421.1,260.9,402.2,276z"/>
	<ellipse class="st2_salesman-15 targetColor" cx="420" cy="276" rx="17.9" ry="7.4" style="fill: rgb(104, 225, 253);"/>
	<ellipse class="st4_salesman-15" cx="420" cy="276" rx="17.9" ry="7.4"/>
	<path class="st5_salesman-15" d="M391.9,220c0,0-12.5-3-7.7-13.4C384.2,206.6,392.8,208.3,391.9,220z"/>
	<path class="st5_salesman-15" d="M399.5,230.4c0,0-1.7-8.9,5.2-12.4C404.7,218,410.2,227.3,399.5,230.4z"/>
	<path class="st5_salesman-15" d="M407.3,244c0,0-2.1-10.6,6.2-14.9C413.5,229.1,420.1,240.2,407.3,244z"/>
	<path class="st5_salesman-15" d="M413.3,258.8c0,0-2.1-10.6,6.2-14.9C419.5,243.9,426.1,255,413.3,258.8z"/>
	<path class="st5_salesman-15" d="M398.7,230.6c0,0-4.4-7.9-12-6.1C386.8,224.5,388.5,235.2,398.7,230.6z"/>
	<path class="st5_salesman-15" d="M406.6,244.3c0,0-5.6-9.2-14.6-6.8C392,237.5,394.6,250.2,406.6,244.3z"/>
	<path class="st5_salesman-15" d="M412.6,258.9c0,0-6.6-8.5-15.3-5.1C397.3,253.8,401.3,266.1,412.6,258.9z"/>
	<path class="st6_salesman-15" d="M417.2,283.5h0.2c0.6,0,1.2,0,1.7,0.1c0-0.1,0-0.1,0-0.2c-2.7-23.7-12-46.2-26.9-64.8c-0.8-1-2.1,0.4-1.4,1.4&#10;&#9;&#9;C405.4,238.3,414.5,260.3,417.2,283.5L417.2,283.5z"/>
	<path class="st5_salesman-15" d="M446.7,236.9c0,0,10.7-2.6,6.6-11.5C453.3,225.4,446,226.9,446.7,236.9z"/>
	<path class="st5_salesman-15" d="M440.2,245.8c0,0,1.5-7.6-4.5-10.7C435.8,235.2,431,243.1,440.2,245.8z"/>
	<path class="st5_salesman-15" d="M433.6,257.5c0,0,1.8-9.1-5.3-12.8C428.2,244.7,422.5,254.3,433.6,257.5z"/>
	<path class="st5_salesman-15" d="M428.4,270.2c0,0,1.8-9.1-5.3-12.8C423.1,257.4,417.4,267,428.4,270.2z"/>
	<path class="st5_salesman-15" d="M440.9,246.1c0,0,3.8-6.8,10.3-5.3C451.2,240.8,449.7,249.9,440.9,246.1z"/>
	<path class="st5_salesman-15" d="M434.1,257.8c0,0,4.8-7.9,12.5-5.8C446.7,252,444.5,262.8,434.1,257.8z"/>
	<path class="st5_salesman-15" d="M429,270.3c0,0,5.7-7.3,13.1-4.4C442.1,265.9,438.7,276.5,429,270.3z"/>
	<path class="st6_salesman-15" d="M446.4,235.7c-11,13.9-18.5,30.2-21.8,47.6c0.6-0.1,1.1-0.2,1.7-0.2c3.3-16.9,10.6-32.7,21.3-46.2&#10;&#9;&#9;C448.2,236.1,447.1,234.9,446.4,235.7z"/>
</g>
<g id="coins_salesman-15">
	
		<linearGradient id="SVGID_00000172414859365148725920000011145257568390899333_-salesman-15" gradientUnits="userSpaceOnUse" x1="98.8" y1="227.76" x2="78.05" y2="198.6" gradientTransform="matrix(1 0 0 -1 0 502)">
		<stop offset="0" style="stop-color:#060094"/>
		<stop offset="1" style="stop-color:#CB9BEA;stop-opacity:0"/>
	</linearGradient>
	<path style="fill:url(#SVGID_00000172414859365148725920000011145257568390899333_);" d="M80.6,273.6l-29.9,17.7&#10;&#9;&#9;c0,0,12.2,13.9,35.1,23.5l37-23.7"/>
	<ellipse class="st8_salesman-15" cx="102.9" cy="281.8" rx="25.4" ry="14.9"/>
	<polygon class="st8_salesman-15" points="77.5,281.8 77.5,277.5 80.2,280.9 &#9;"/>
	<polygon class="st8_salesman-15" points="128.4,277.5 128.4,281.8 125.1,281.8 127.5,278.3 &#9;"/>
	<ellipse class="st9_salesman-15" cx="102.9" cy="277.5" rx="25.4" ry="14.9"/>
	<path class="st8_salesman-15" d="M115.8,275.5c0.2,0.3,0.2,0.7,0.2,1.1l-0.1,0.4h-4.7c0-0.1,0.1-0.3,0.1-0.4c0-0.3-0.1-0.6-0.3-0.8&#10;&#9;&#9;c-0.3-0.4-0.7-0.8-1.1-1c-0.7-0.3-1.4-0.5-2.2-0.6c-0.7,0-1.4,0.1-2.1,0.3c-0.7,0.3-0.9,0.6-0.8,1.1c0.2,0.6,0.6,1,1,1.5&#10;&#9;&#9;c0.5,0.5,1,1.1,1.4,1.6c0.4,0.5,0.5,1.2,0.2,1.8c-0.5,0.8-1.3,1.5-2.3,1.8c-1.6,0.6-3.2,1-4.9,1c-1.8,0.1-3.6-0.2-5.4-0.8l-2.7,1.1&#10;&#9;&#9;l-3.1-1.5l2.6-1.1c-0.5-0.3-0.9-0.7-1.2-1.1c-0.3-0.3-0.5-0.6-0.6-1c-0.1-0.3-0.1-0.6-0.2-0.8c0-0.2,0-0.4,0-0.6l0.1-0.2h4.7&#10;&#9;&#9;c0,0.2-0.1,0.3-0.1,0.5c0,0.4,0.2,0.7,0.4,1c0.4,0.6,0.9,1.1,1.6,1.3c0.8,0.4,1.8,0.7,2.7,0.7c0.8,0.1,1.7-0.1,2.5-0.4&#10;&#9;&#9;c0.7-0.3,0.9-0.6,0.7-1.1c-0.2-0.6-0.6-1-1-1.5c-0.5-0.5-1-1-1.4-1.6c-0.4-0.5-0.5-1.2-0.2-1.8c0.6-0.9,1.4-1.5,2.4-1.8&#10;&#9;&#9;c1.5-0.6,3.1-0.9,4.7-0.9c1.7-0.1,3.4,0.2,5,0.8l2.7-1.1l2.9,1.6l-2.7,1.2C115.2,274.4,115.6,274.9,115.8,275.5z"/>
	<path class="st8_salesman-15" d="M103,293.1c-13.7,0-24.4-6.8-24.4-15.5s10.7-15.5,24.4-15.5s24.4,6.8,24.4,15.5S116.6,293.1,103,293.1z&#10;&#9;&#9; M103,268.1c-8.7,0-18.4,3.9-18.4,9.5s9.7,9.5,18.4,9.5s18.4-3.9,18.4-9.5S111.7,268.1,103,268.1L103,268.1z"/>
	<ellipse class="st8_salesman-15" cx="102.9" cy="273.5" rx="25.4" ry="14.9"/>
	<polygon class="st8_salesman-15" points="77.5,273.5 77.5,269.2 80.2,272.7 &#9;"/>
	<polygon class="st8_salesman-15" points="128.4,269.2 128.4,273.5 125.1,273.5 127.5,270.1 &#9;"/>
	<ellipse class="st9_salesman-15" cx="102.9" cy="269.2" rx="25.4" ry="14.9"/>
	<path class="st8_salesman-15" d="M115.8,267.2c0.2,0.3,0.2,0.7,0.2,1.1l-0.1,0.4h-4.7c0-0.1,0.1-0.3,0.1-0.4c0-0.3-0.1-0.6-0.3-0.9&#10;&#9;&#9;c-0.3-0.4-0.7-0.8-1.1-1c-0.7-0.4-1.4-0.5-2.2-0.6c-0.7-0.1-1.4,0.1-2.1,0.3c-0.7,0.3-0.9,0.6-0.8,1.1c0.2,0.6,0.6,1.1,1,1.5&#10;&#9;&#9;c0.5,0.5,1,1.1,1.4,1.6c0.4,0.5,0.5,1.2,0.2,1.8c-0.5,0.8-1.3,1.5-2.3,1.8c-1.6,0.6-3.2,1-4.9,1c-1.8,0.1-3.7-0.2-5.4-0.8l-2.7,1.1&#10;&#9;&#9;l-3.1-1.5l2.6-1.1c-0.5-0.3-0.9-0.7-1.2-1.1c-0.3-0.3-0.5-0.6-0.6-1c-0.1-0.3-0.1-0.6-0.2-0.8c0-0.2,0-0.4,0-0.6L90,269h4.7&#10;&#9;&#9;c0,0.2-0.1,0.3-0.1,0.5c0,0.4,0.2,0.8,0.4,1.1c0.4,0.6,0.9,1,1.5,1.3c0.8,0.4,1.8,0.7,2.7,0.7c0.8,0.1,1.7-0.1,2.5-0.4&#10;&#9;&#9;c0.7-0.3,0.9-0.6,0.7-1.1c-0.2-0.6-0.6-1.1-1-1.5c-0.5-0.5-1-1-1.5-1.6c-0.4-0.5-0.5-1.2-0.2-1.8c0.6-0.9,1.4-1.5,2.4-1.8&#10;&#9;&#9;c1.5-0.6,3.1-0.9,4.7-0.9c1.7-0.1,3.4,0.2,5,0.8l2.7-1.1l2.9,1.6l-2.7,1.1C115.2,266.2,115.6,266.7,115.8,267.2z"/>
	<path class="st8_salesman-15" d="M103,284.9c-13.7,0-24.4-6.8-24.4-15.5s10.7-15.5,24.4-15.5s24.4,6.8,24.4,15.5S116.6,284.9,103,284.9z&#10;&#9;&#9; M103,259.9c-8.7,0-18.4,3.9-18.4,9.5s9.7,9.5,18.4,9.5s18.4-3.9,18.4-9.5S111.7,259.9,103,259.9L103,259.9z"/>
	<ellipse class="st8_salesman-15" cx="102.9" cy="265.3" rx="25.4" ry="14.9"/>
	<polygon class="st8_salesman-15" points="77.5,265.3 77.5,261 80.2,264.4 &#9;"/>
	<polygon class="st8_salesman-15" points="128.4,261 128.4,265.3 125.1,265.3 127.5,261.9 &#9;"/>
	<ellipse class="st9_salesman-15" cx="102.9" cy="261" rx="25.4" ry="14.9"/>
	<path class="st8_salesman-15" d="M115.8,259c0.2,0.3,0.2,0.7,0.2,1.1l-0.1,0.4h-4.7c0-0.1,0.1-0.3,0.1-0.4c0-0.3-0.1-0.6-0.3-0.8&#10;&#9;&#9;c-0.3-0.4-0.7-0.8-1.1-1c-0.7-0.3-1.4-0.5-2.2-0.6c-0.7,0-1.4,0.1-2.1,0.3c-0.7,0.3-0.9,0.6-0.8,1.1c0.2,0.6,0.6,1,1,1.5&#10;&#9;&#9;c0.5,0.5,1,1.1,1.4,1.6c0.4,0.5,0.5,1.2,0.2,1.8c-0.5,0.8-1.3,1.5-2.3,1.8c-1.6,0.6-3.2,1-4.9,1c-1.8,0.1-3.7-0.2-5.4-0.8l-2.7,1.1&#10;&#9;&#9;l-3.1-1.5l2.6-1.1c-0.5-0.3-0.9-0.7-1.2-1.1c-0.3-0.3-0.5-0.6-0.6-1c-0.1-0.3-0.1-0.6-0.2-0.8c0-0.2,0-0.4,0-0.6l0.1-0.2h4.7&#10;&#9;&#9;c0,0.2-0.1,0.3-0.1,0.5c0,0.4,0.2,0.7,0.4,1c0.4,0.6,0.9,1,1.5,1.3c0.8,0.4,1.8,0.7,2.7,0.7c0.8,0.1,1.7-0.1,2.5-0.4&#10;&#9;&#9;c0.7-0.3,0.9-0.6,0.7-1.1c-0.2-0.6-0.6-1-1-1.5c-0.5-0.5-1-1-1.4-1.6c-0.4-0.5-0.5-1.2-0.2-1.8c0.6-0.9,1.4-1.5,2.4-1.8&#10;&#9;&#9;c1.5-0.6,3.1-0.9,4.7-0.9c1.7-0.1,3.4,0.2,5,0.8l2.7-1.1l2.9,1.6l-2.7,1.1C115.2,257.9,115.6,258.4,115.8,259z"/>
	<path class="st8_salesman-15" d="M103,276.7c-13.7,0-24.4-6.8-24.4-15.5s10.7-15.5,24.4-15.5s24.4,6.8,24.4,15.5&#10;&#9;&#9;C127.4,269.9,116.6,276.7,103,276.7z M103,251.7c-8.7,0-18.4,3.9-18.4,9.5s9.7,9.5,18.4,9.5s18.4-3.9,18.4-9.5&#10;&#9;&#9;S111.7,251.7,103,251.7L103,251.7z"/>
	<ellipse class="st8_salesman-15" cx="102.9" cy="259.2" rx="25.4" ry="14.9"/>
	<polygon class="st8_salesman-15" points="77.5,259.2 77.5,254.9 80.2,258.3 &#9;"/>
	<polygon class="st8_salesman-15" points="128.4,254.9 128.4,259.2 125.1,259.2 127.5,255.8 &#9;"/>
	<ellipse class="st9_salesman-15" cx="102.9" cy="254.9" rx="25.4" ry="14.9"/>
	<path class="st8_salesman-15" d="M115.8,252.9c0.2,0.3,0.2,0.7,0.2,1.1l-0.1,0.4h-4.7c0-0.1,0.1-0.3,0.1-0.4c0-0.3-0.1-0.6-0.3-0.9&#10;&#9;&#9;c-0.3-0.4-0.7-0.8-1.1-1c-0.7-0.4-1.4-0.5-2.2-0.6c-0.7-0.1-1.4,0.1-2.1,0.3c-0.7,0.3-0.9,0.6-0.8,1.1c0.2,0.6,0.6,1.1,1,1.5&#10;&#9;&#9;c0.5,0.5,1,1,1.4,1.6c0.4,0.5,0.5,1.2,0.2,1.8c-0.5,0.8-1.3,1.5-2.3,1.8c-1.6,0.6-3.2,1-4.9,1c-1.8,0.1-3.7-0.2-5.4-0.8l-2.7,1.1&#10;&#9;&#9;l-3.1-1.5l2.6-1.1c-0.5-0.3-0.9-0.7-1.2-1.1c-0.3-0.3-0.5-0.6-0.6-1c-0.1-0.3-0.1-0.6-0.2-0.9c0-0.2,0-0.4,0-0.6l0.1-0.2h4.7&#10;&#9;&#9;c0,0.2-0.1,0.3-0.1,0.5c0,0.4,0.2,0.7,0.4,1c0.4,0.6,0.9,1,1.5,1.3c0.8,0.4,1.8,0.7,2.7,0.7c0.8,0.1,1.7-0.1,2.5-0.4&#10;&#9;&#9;c0.7-0.3,0.9-0.6,0.7-1.1c-0.2-0.6-0.6-1.1-1-1.5c-0.5-0.5-1-1-1.4-1.6c-0.4-0.5-0.5-1.2-0.2-1.8c0.6-0.9,1.4-1.5,2.4-1.8&#10;&#9;&#9;c1.5-0.6,3.1-0.9,4.7-0.9c1.7-0.1,3.4,0.2,5,0.8l2.7-1.1l2.9,1.6l-2.7,1.1C115.2,251.8,115.6,252.3,115.8,252.9z"/>
	<path class="st8_salesman-15" d="M103,270.6c-13.7,0-24.4-6.8-24.4-15.5s10.7-15.5,24.4-15.5s24.4,6.8,24.4,15.5S116.6,270.6,103,270.6z&#10;&#9;&#9; M103,245.6c-8.7,0-18.4,3.9-18.4,9.5s9.7,9.5,18.4,9.5s18.4-3.9,18.4-9.5S111.7,245.6,103,245.6L103,245.6z"/>
	<ellipse class="st8_salesman-15" cx="107.1" cy="251" rx="25.4" ry="14.9"/>
	<polygon class="st8_salesman-15" points="81.6,251 81.6,246.7 84.4,250.1 &#9;"/>
	<polygon class="st8_salesman-15" points="132.5,246.7 132.5,251 129.3,251 131.6,247.5 &#9;"/>
	<ellipse class="st9_salesman-15" cx="107.1" cy="246.7" rx="25.4" ry="14.9"/>
	<path class="st8_salesman-15" d="M120,244.7c0.2,0.3,0.2,0.7,0.2,1.1l-0.1,0.4h-4.7c0-0.1,0.1-0.3,0.1-0.4c0-0.3-0.1-0.6-0.3-0.9&#10;&#9;&#9;c-0.3-0.4-0.7-0.8-1.1-1c-0.7-0.3-1.4-0.5-2.2-0.6c-0.7-0.1-1.4,0.1-2.1,0.3c-0.7,0.3-0.9,0.6-0.8,1.1c0.2,0.6,0.6,1.1,1,1.5&#10;&#9;&#9;c0.5,0.5,1,1.1,1.4,1.6c0.4,0.5,0.5,1.2,0.2,1.8c-0.5,0.8-1.3,1.5-2.3,1.8c-1.6,0.6-3.2,1-4.9,1c-1.8,0.1-3.6-0.2-5.4-0.8l-2.7,1.1&#10;&#9;&#9;l-3.1-1.5l2.6-1.1c-0.5-0.3-0.9-0.7-1.2-1.1c-0.3-0.3-0.5-0.6-0.6-1c-0.1-0.3-0.1-0.6-0.2-0.8c0-0.2,0-0.4,0.1-0.6l0.1-0.2h4.7&#10;&#9;&#9;c0,0.2-0.1,0.3-0.1,0.5c0,0.4,0.2,0.8,0.4,1.1c0.4,0.6,0.9,1,1.5,1.3c0.8,0.4,1.8,0.7,2.7,0.7c0.8,0.1,1.7-0.1,2.5-0.4&#10;&#9;&#9;c0.6-0.3,0.9-0.6,0.7-1.1c-0.2-0.6-0.6-1-1-1.4c-0.5-0.5-1-1-1.4-1.6c-0.4-0.5-0.5-1.2-0.2-1.8c0.6-0.9,1.4-1.5,2.4-1.8&#10;&#9;&#9;c1.5-0.6,3.1-0.9,4.7-0.9c1.7-0.1,3.4,0.2,5,0.8l2.7-1.1l2.9,1.6l-2.7,1.1C119.4,243.6,119.8,244.1,120,244.7z"/>
	<path class="st8_salesman-15" d="M107.1,260.9c-12.8,0-22.9-6.1-22.9-14s10-14,22.9-14s22.9,6.1,22.9,14S119.9,260.9,107.1,260.9z M107.1,235.9&#10;&#9;&#9;c-10.8,0-19.9,5.1-19.9,11s9.1,11,19.9,11s19.9-5,19.9-11S117.9,235.8,107.1,235.9L107.1,235.9z"/>
	<ellipse class="st8_salesman-15" cx="116.1" cy="242.1" rx="25.5" ry="14.9"/>
	<polygon class="st8_salesman-15" points="90.6,242.1 90.6,237.8 93.4,241.3 &#9;"/>
	<polygon class="st8_salesman-15" points="141.5,237.8 141.5,242.1 138.3,242.1 140.7,238.7 &#9;"/>
	<ellipse class="st9_salesman-15" cx="116.1" cy="237.8" rx="25.5" ry="14.9"/>
	<path class="st8_salesman-15" d="M129,235.9c0.2,0.3,0.2,0.7,0.2,1.1l-0.1,0.4h-4.6c0-0.1,0.1-0.3,0.1-0.4c0-0.3-0.1-0.6-0.3-0.8&#10;&#9;&#9;c-0.3-0.4-0.7-0.8-1.1-1c-0.7-0.3-1.4-0.5-2.2-0.6c-0.7,0-1.4,0.1-2.1,0.3c-0.7,0.3-0.9,0.6-0.8,1.1c0.2,0.6,0.6,1,1,1.4&#10;&#9;&#9;c0.5,0.5,1,1.1,1.4,1.6c0.4,0.5,0.5,1.2,0.3,1.8c-0.5,0.8-1.3,1.5-2.3,1.8c-1.6,0.6-3.2,1-4.9,1c-1.8,0.1-3.7-0.2-5.4-0.8l-2.7,1.2&#10;&#9;&#9;l-3.1-1.5l2.6-1.1c-0.5-0.3-0.9-0.7-1.2-1.1c-0.3-0.3-0.5-0.6-0.6-1c-0.1-0.3-0.1-0.6-0.2-0.8c0-0.2,0-0.4,0-0.6l0.1-0.2h4.7&#10;&#9;&#9;c0,0.2-0.1,0.3-0.1,0.5c0,0.4,0.1,0.7,0.4,1.1c0.4,0.6,0.9,1,1.5,1.3c0.8,0.4,1.8,0.7,2.7,0.7c0.8,0.1,1.7-0.1,2.5-0.4&#10;&#9;&#9;c0.6-0.3,0.9-0.6,0.7-1.1c-0.2-0.6-0.6-1-1-1.4c-0.5-0.5-1-1-1.4-1.6c-0.4-0.5-0.5-1.2-0.2-1.8c0.6-0.9,1.4-1.5,2.4-1.8&#10;&#9;&#9;c1.5-0.6,3.1-0.9,4.7-0.9c1.7-0.1,3.4,0.2,5,0.8l2.7-1.1l2.9,1.6l-2.7,1.1C128.3,234.8,128.7,235.3,129,235.9z"/>
	<path class="st8_salesman-15" d="M116.1,251.5c-12.3,0-22.4-6.1-22.4-13.5s10-13.5,22.4-13.5s22.4,6.1,22.4,13.5S128.4,251.5,116.1,251.5z&#10;&#9;&#9; M116.1,226.5c-11.2,0-20.4,5.2-20.4,11.5s9.1,11.5,20.4,11.5s20.4-5.2,20.4-11.5S127.3,226.5,116.1,226.5L116.1,226.5z"/>
	<ellipse class="st8_salesman-15" cx="103.7" cy="229.6" rx="25.4" ry="14.9"/>
	<polygon class="st8_salesman-15" points="78.3,229.6 78.3,225.3 81,228.7 &#9;"/>
	<polygon class="st8_salesman-15" points="129.2,225.3 129.2,229.6 125.9,229.6 128.3,226.1 &#9;"/>
	<ellipse class="st9_salesman-15" cx="103.7" cy="225.3" rx="25.4" ry="14.9"/>
	<path class="st8_salesman-15" d="M116.6,223.3c0.2,0.3,0.2,0.7,0.2,1.1l-0.1,0.4h-4.6c0-0.1,0.1-0.3,0.1-0.4c0-0.3-0.1-0.6-0.3-0.9&#10;&#9;&#9;c-0.3-0.4-0.7-0.8-1.1-1c-0.7-0.4-1.4-0.6-2.2-0.6c-0.7-0.1-1.4,0.1-2.1,0.3c-0.7,0.3-0.9,0.6-0.8,1.1c0.2,0.6,0.6,1.1,1,1.5&#10;&#9;&#9;c0.5,0.5,1,1.1,1.4,1.6c0.4,0.5,0.5,1.2,0.3,1.8c-0.5,0.8-1.3,1.5-2.3,1.8c-1.6,0.6-3.2,1-4.9,1c-1.8,0.1-3.7-0.2-5.4-0.8l-2.7,1.1&#10;&#9;&#9;l-3.1-1.4l2.6-1.1c-0.5-0.3-0.9-0.7-1.2-1.1c-0.3-0.3-0.5-0.6-0.6-1c-0.1-0.3-0.1-0.6-0.2-0.8c0-0.2,0-0.4,0-0.6l0.1-0.2h4.6&#10;&#9;&#9;c0,0.2-0.1,0.3-0.1,0.5c0,0.4,0.1,0.7,0.4,1.1c0.4,0.6,0.9,1,1.5,1.3c0.8,0.4,1.8,0.7,2.7,0.7c0.8,0.1,1.7-0.1,2.5-0.4&#10;&#9;&#9;c0.6-0.3,0.9-0.6,0.7-1.1c-0.2-0.6-0.6-1.1-1-1.5c-0.5-0.5-1-1-1.4-1.6c-0.4-0.5-0.5-1.2-0.2-1.8c0.6-0.9,1.4-1.5,2.4-1.8&#10;&#9;&#9;c1.5-0.6,3.1-0.9,4.7-0.9c1.7-0.1,3.4,0.2,5,0.8l2.7-1.1l2.9,1.6l-2.7,1.1C116,222.3,116.4,222.8,116.6,223.3z"/>
	<path class="st8_salesman-15" d="M103.8,239c-12.3,0-22.4-6.1-22.4-13.5s10-13.5,22.4-13.5s22.4,6.1,22.4,13.5S116.1,239,103.8,239z M103.8,214&#10;&#9;&#9;c-11.2,0-20.4,5.2-20.4,11.5s9.1,11.5,20.4,11.5s20.4-5.2,20.4-11.5S115,214,103.8,214z"/>
</g>
<g id="statistic_salesman-15">
	
		<linearGradient id="SVGID_00000084495706641305169190000009086984474514580356_-salesman-15" gradientUnits="userSpaceOnUse" x1="250.613" y1="242.3378" x2="206.0831" y2="179.7578" gradientTransform="matrix(1 0 0 -1 0 502)">
		<stop offset="0" style="stop-color:#060094"/>
		<stop offset="1" style="stop-color:#CB9BEA;stop-opacity:0"/>
	</linearGradient>
	<path style="fill:url(#SVGID_00000084495706641305169190000009086984474514580356_);" d="M185.6,281l-29.9,17.7&#10;&#9;&#9;c0,0,30.4,53.8,53.2,63.3l58.2-31.3l-33.5-51.2L185.6,281z"/>
	<path class="st6_salesman-15" d="M221.3,160.4l-43.6,121.2c-1.6,4.5,5.4,7.1,7.1,2.5L228.4,163C230,158.4,222.9,155.9,221.3,160.4z"/>
	<path class="st6_salesman-15" d="M249,203.1l10.6,128.3c0.4,4.8,7.9,4.2,7.5-0.6l-10.6-128.3C256.1,197.7,248.6,198.3,249,203.1z"/>
	<path class="st6_salesman-15" d="M228.9,154.8l1.9,128.7c0.1,4.8,7.6,4.7,7.5-0.1l-1.9-128.7C236.4,149.9,228.9,150,228.9,154.8z"/>
	<path class="st2_salesman-15 targetColor" d="M266.1,246.6l-73.3-40.2c-1-0.6-1.7-1.6-1.7-2.8V75.5c0-1.8,1.4-3.2,3.1-3.2c0.6,0,1.2,0.2,1.7,0.5l73.3,42.3&#10;&#9;&#9;c1,0.6,1.6,1.6,1.6,2.8v126c0,1.8-1.4,3.2-3.2,3.2C267.1,247.1,266.6,246.9,266.1,246.6z" style="fill: rgb(104, 225, 253);"/>
	<path class="st6_salesman-15" d="M255.3,161.1v28.1c0,8.1-12.7,8.2-12.7,0v-28.1C242.7,153,255.3,153,255.3,161.1z"/>
	<path class="st11_salesman-15" d="M238.1,132.3v45.3c0,8.1-12.7,8.2-12.7,0v-45.3C225.4,124.2,238.1,124.2,238.1,132.3z"/>
	<path class="st8_salesman-15" d="M217.7,99.5v69.6c0,8.2-12.7,8.2-12.7,0V99.5C205,91.3,217.7,91.3,217.7,99.5z"/>
	<path class="st12_salesman-15" d="M233.5,197.1l15.7,8.2c2.2,1.2,0.3,4.5-2,3.4l-15.7-8.2C229.3,199.3,231.2,195.9,233.5,197.1z"/>
	<path class="st12_salesman-15" d="M206,195.1c14.6,7.8,29.3,15.4,44.2,22.6c2.2,1.1,0.3,4.5-2,3.4c-14.9-7.2-29.6-14.8-44.2-22.6&#10;&#9;&#9;C201.8,197.2,203.8,193.9,206,195.1z"/>
</g>
<g id="salesman_salesman-15">
	
		<linearGradient id="SVGID_00000005254193449982185940000018109919337161761169_-salesman-15" gradientUnits="userSpaceOnUse" x1="311.9671" y1="141.9914" x2="274.3671" y2="110.8614" gradientTransform="matrix(1 0 0 -1 0 502)">
		<stop offset="0" style="stop-color:#060094"/>
		<stop offset="1" style="stop-color:#CB9BEA;stop-opacity:0"/>
	</linearGradient>
	<path style="fill:url(#SVGID_00000005254193449982185940000018109919337161761169_);" d="M297.3,358.7c-11,6.2-33.3,15.9-44.2,22.3&#10;&#9;&#9;c9.3,8.4,20,15.2,31.6,20l41-24.6L297.3,358.7z"/>
	<path class="st14_salesman-15" d="M244.9,162.6c0,0-3.3-10.6-5.1-10.6s1,4.1,0,3.9s-7.4-8.1-9.3-7.8s-3,5.1-2.5,7.9s11.5,11.1,11.5,11.1&#10;&#9;&#9;S245.8,167.1,244.9,162.6z"/>
	<path class="st12_salesman-15" d="M267.7,179.6c-3.8-0.2-15.6-11-22.5-17.7c-3.8,1.4-7.4,3.8-8.3,7.6c7.3,7.5,21.5,22.9,27.9,24.6&#10;&#9;&#9;c8.5,2.4,26.1-5,26.1-5v-18.6C290.8,170.5,273.2,179.8,267.7,179.6z"/>
	<path class="st8_salesman-15" d="M294.4,362.2c4.2-3,3.4-6.7,3.4-6.7l14,1.2c0.2,5.4,0.1,10.8,0.2,16.3l-5-0.4l-1.4-2.2c-4.3,0-7.8,3-12.9,3.8&#10;&#9;&#9;s-10.4-3.2-10-6.2S290.2,365.2,294.4,362.2z"/>
	<path class="st14_salesman-15" d="M286.2,208.9c-1-0.3-1.7-1-2-2c-0.6-1.8-1.3-5.2-2.9-5.4s-6.5-0.6-8,0.5c-1.4,1-2.4,2.6-2.8,4.3&#10;&#9;&#9;c-0.1,1.3,2.3,2.2,2.3,2.2s2.3,3.7,9.7,7.5"/>
	<path class="st8_salesman-15" d="M310.1,367c0,0-7.7,7.9-10.4,9.8s-5,1.9-4.2,4.6s6.2,3.3,10.1,2.7s11.7-6.2,13.2-7.3v1.9l5.7-1.9&#10;&#9;&#9;c0,0,1.3-10.6-1.7-12.6"/>
	<path class="st6_salesman-15" d="M310.4,248l-21.7-4.6c-0.7-2.4-1.7,51.8-0.2,69.6c0.6,7,3.8,36.8,5,46.4c5.5,0.5,13.5,0.7,16.6-0.1&#10;&#9;&#9;C311,332.1,310.4,248,310.4,248z"/>
	<path class="st6_salesman-15" d="M298.1,249.2l24.1-5.4c3-0.3,3,68.3,2.9,71.7c0,0.5,0,0.9-0.1,1.4c0,0.1,0,0.3,0.1,0.4&#10;&#9;&#9;c0.6,22.6,1.1,45.7-0.5,47.5c-3.8,3.8-9.7,4.7-14.5,2.3c0,0-8.4-85.6-9.9-94.1C298.9,265,298.2,257.1,298.1,249.2z"/>
	<path class="st12_salesman-15" d="M310.6,174.9c0,0,0.7,0.3,1.7,0.9c3.4,2,10.7,6.9,11.9,13.2c1.6,8.2-3.9,58-3.9,58s-22.6,5.9-32.1-5.2&#10;&#9;&#9;c0,0-4.5-44.3-2.7-54.9s5.6-17.2,11.6-16.8"/>
	<path class="st6_salesman-15" d="M299.4,222.6c8.3,0.2,18.2-7,25.4-11c-0.4,13.2-1.1,28.9-1.4,35.4c-7.1,3.9-17.4,6.2-25.3,5.2&#10;&#9;&#9;c-0.3-0.1-0.5,0.1-0.7,0.3c-3.7-1.2-7.1-3-10.3-5.3c0-5.2,0-17.5-0.6-26.1C290.7,222.1,295,222.6,299.4,222.6z"/>
	<path class="st14_salesman-15" d="M311.4,167.5l-0.7,7.2c0,0-3,4.9-9.8,2.5l0.2-7.3"/>
	<path class="st15_salesman-15" d="M311.4,167.5l-0.7,7.2c0,0-3,4.9-9.8,2.5l0.2-7.3"/>
	<path class="st6_salesman-15" d="M285.6,183.9c1-4.6,2-11.9,5.3-13.4c2.2-1,7-0.5,7-0.5s-5.4,10.6-5.5,16.1s2.2,21,2.2,21s6.7-13.6,10.4-18.7&#10;&#9;&#9;s10.4-10.7,10.4-10.7s5.7,3.7,6.9,5.3c-6.1,4.6-11,9.3-13.2,17.1c-1.4,5.2-2.1,10.7-3.3,15.9c-0.5,2-1,4.1-1.3,6.2&#10;&#9;&#9;c-3.2-1.1-17.9-6.2-18.3-7.4S284.6,188.6,285.6,183.9z"/>
	<path class="st6_salesman-15" d="M294.8,145.8c1.8-1.3,4.1-1.8,6.3-1.1c0.2,0,0.4-0.1,0.6-0.1c5.7-0.2,12.3,1,14.7,6.9s-1.1,12-5.1,16.1&#10;&#9;&#9;c-3.2,3.3-7.7-0.1-7.5-3.7c-2.2-1-3.7-3.1-3.9-5.5c-1.7,0.3-3.5-0.1-5-1c-1.3-0.9-2.3-2.2-2.8-3.8&#10;&#9;&#9;C291.4,150.7,292.4,147.6,294.8,145.8z"/>
	<path class="st14_salesman-15" d="M295.3,154c0,0,0.5,7,0.3,9.7s1.8,8.7,4.5,10.5s10.4-5.6,11.3-6.7s2-6.1,0.2-6.4s-3.5,3.9-3.5,3.9&#10;&#9;&#9;s-2.4-2-2-4.6s0.6-5.6-2.1-6.1S298.3,157.2,295.3,154z"/>
	<path class="st16_salesman-15" d="M300.1,178.4l2,5.5l-2.8,2.1l1.9,6.4l-7.1,17.4l-1.1-20.4c0,0,3.8-3.5,3.8-3.8s-1.3-3.3-1.3-3.3L300.1,178.4z&#10;&#9;&#9;"/>
	<path class="st12_salesman-15" d="M305.6,217.9c0,0,5-33.1,13.1-35.1s9.3,6.7,7.4,20.6s-7,30.1-16,29.8S282,218.7,282,218.7s0.2-9.3,3.7-9.9&#10;&#9;&#9;S305.6,217.9,305.6,217.9z"/>
	<path class="st17_salesman-15" d="M267.7,179.6c-3.8-0.2-15.6-11-22.5-17.7c-3.8,1.4-7.4,3.8-8.3,7.6c7.3,7.5,21.5,22.9,27.9,24.6&#10;&#9;&#9;c8.5,2.4,26.1-5,26.1-5v-18.6C290.8,170.5,273.2,179.8,267.7,179.6z"/>
	<path class="st17_salesman-15" d="M305.6,217.9c0,0,5-33.1,13.1-35.1s9.3,6.7,7.4,20.6s-7,30.1-16,29.8S282,218.7,282,218.7s0.2-9.3,3.7-9.9&#10;&#9;&#9;S305.6,217.9,305.6,217.9z"/>
	<path class="st12_salesman-15" d="M305.4,203.3l-3.6-1.9c-0.8-0.4-1.5,0.8-0.7,1.2l3.6,1.9C305.5,204.9,306.2,203.7,305.4,203.3z"/>
</g>
</svg>